<?xml version="1.0" encoding="UTF-8"?>
<svg id="Layer_2" data-name="Layer 2" xmlns="http://www.w3.org/2000/svg" xmlns:xlink="http://www.w3.org/1999/xlink" viewBox="0 0 550.28 307">
  <defs>
    <style>
      .cls-1 {
        fill: url(#linear-gradient-2);
      }

      .cls-2 {
        fill: #65459c;
      }

      .cls-2, .cls-3, .cls-4, .cls-5 {
        stroke-miterlimit: 10;
      }

      .cls-2, .cls-4, .cls-5 {
        stroke: #65469c;
      }

      .cls-3 {
        stroke: #fff;
      }

      .cls-3, .cls-4 {
        fill: #fff;
      }

      .cls-6 {
        fill: url(#linear-gradient);
      }

      .cls-5 {
        fill: url(#linear-gradient-3);
      }
    </style>
    <linearGradient id="linear-gradient" x1="130" y1="-3.44" x2="130" y2="305.09" gradientUnits="userSpaceOnUse">
      <stop offset=".02" stop-color="#846dab"/>
      <stop offset=".29" stop-color="#8f51a0"/>
      <stop offset=".75" stop-color="#662d91"/>
    </linearGradient>
    <linearGradient id="linear-gradient-2" x1="386.75" y1=".61" x2="419.52" y2="301.72" gradientUnits="userSpaceOnUse">
      <stop offset=".05" stop-color="#846dab"/>
      <stop offset=".22" stop-color="#8f51a0"/>
      <stop offset=".48" stop-color="#662d91"/>
    </linearGradient>
    <linearGradient id="linear-gradient-3" x1="404.66" y1="100.5" x2="404.25" y2="125.79" gradientTransform="translate(2.79 -4.15) rotate(1)" gradientUnits="userSpaceOnUse">
      <stop offset=".31" stop-color="#65469c" stop-opacity=".8"/>
      <stop offset=".85" stop-color="#65469c"/>
    </linearGradient>
  </defs>
  <g id="Layer_1-2" data-name="Layer 1">
    <path class="cls-6" d="M166.84,0H10.35C4.63,0,0,4.04,0,9.02v286.96c0,4.98,4.63,9.02,10.35,9.02h156.49c51.45,0,93.16-36.35,93.16-81.19V81.19C260,36.35,218.29,0,166.84,0ZM189,211.06c0,18.74-17.31,33.94-38.67,33.94h-69.6c-4.27,0-7.73-3.04-7.73-6.79V70.79c0-3.75,3.46-6.79,7.73-6.79h69.6c21.35,0,38.67,15.19,38.67,33.94v113.13Z"/>
    <path class="cls-1" d="M541.43,2h-57.41c-1.33,0-2.58.32-3.72.86-2.1-.06-4.14,1.03-5.37,3l-69.84,90.11L335.25,5.98c-.91-1.52-2.32-2.51-3.87-2.89-1.23-.67-2.62-1.08-4.12-1.08h-57.41c-4.84,0-8.78,3.96-8.85,8.88l-4.28,286.96c-.08,5.04,3.91,9.16,8.85,9.16h57.62c4.82,0,8.74-3.96,8.82-8.89l1.64-110.07,10.98,24.28c27.53,48.72,43.01,77.96,53.28,88.9l.08.52c2.13,3.36,4.39,4.78,7.01,4.31,2.62.48,4.89-.95,7.01-4.31l.08-.52c10.27-10.94,25.75-40.18,53.28-88.9l6.64-14.68-1.49,100.19c-.07,5.04,3.89,9.17,8.82,9.17h57.82c4.84,0,8.78-3.96,8.85-8.88l4.28-286.96c.08-5.04-3.91-9.16-8.85-9.16Z"/>
    <g>
      <path class="cls-3" d="M301.88,100.07c.07-6.68,5.55-12.03,12.23-11.95,55.87.66,107.27.89,163.14,1.55,7.2.08,13.62,7.35,16.27,14.04l14.07,31.14c4.23,12.35,3.65,8.95,2.19,19.93l-3.11,8.41c-.33,2.67,1.93,1.45,4.32,2.69l-1.97-.67c2.68,1,3.96-.72,4.49,5.5v2.99c-.36,4.85-.84,7.73-3.45,7.8l-211.86.59c-3.64.05-4.69-.75-4.69-4.39l-.05-3.23c0-2.66.12-5.11,2.59-6.08l1.53-2.23c2.51-.93,3.67-4.21,3.7-6.88.2-19.73.41-39.47.61-59.2Z"/>
      <path class="cls-5" d="M315.58,102.85c.08-1.55,1-2.98,2.44-3.55s3.29-.56,4.97-.58c22.02.11,53.14.23,79.35.37,32.61.24,59.92.11,73.9.44,4.23-.03,6.7,3.69,8.56,7.16,2.02,3.94,9.86,18.09,9.97,24.94.03,1.9-1.3,3.54-3.14,4.01-5.17,1.31-15.44-.38-20.55.19-5.1.39-8.95.02-13.06,2.92-7.23,5.1-7.3,5.67-12.52,7.75-5.2,2.06-12.59,3.11-18.04,2.81-7.37-.39-2.87.14-12.84-1.86-2.12-.42-6.54-.75-28.95-10.27-15.58-6.61-13.64-6.15-22.93-6.25-17.61-.19-1.64.59-32.11.32-4.73-.04-15.47.82-15.31-4.79.21-7.37-.24-14.42.14-21.63l.1-1.97Z"/>
      <circle class="cls-3" cx="334.7" cy="178.25" r="23.04"/>
      <circle class="cls-2" cx="334.7" cy="178.25" r="16.3"/>
      <circle class="cls-4" cx="334.7" cy="178.25" r="10.24"/>
      <circle class="cls-3" cx="481.83" cy="181.9" r="23.04"/>
      <circle class="cls-2" cx="481.83" cy="181.9" r="16.3"/>
      <circle class="cls-4" cx="481.83" cy="181.9" r="10.24"/>
    </g>
  </g>
</svg>